<?xml version="1.0" encoding="UTF-8" standalone="no"?>
<!DOCTYPE svg PUBLIC "-//W3C//DTD SVG 1.1//EN"
 "http://www.w3.org/Graphics/SVG/1.1/DTD/svg11.dtd">
<!-- Generated by graphviz version 2.40.1 (20161225.0304)
 -->
<!-- Title: %3 Pages: 1 -->
<svg width="635pt" height="404pt"
 viewBox="0.00 0.00 635.16 404.00" xmlns="http://www.w3.org/2000/svg" xmlns:xlink="http://www.w3.org/1999/xlink">
<g id="graph0" class="graph" transform="scale(1 1) rotate(0) translate(4 400)">
<title>%3</title>
<polygon fill="#ffffff" stroke="transparent" points="-4,4 -4,-400 631.1571,-400 631.1571,4 -4,4"/>
<!-- [root] aws_instance.tf1server -->
<g id="node1" class="node">
<title>[root] aws_instance.tf1server</title>
<polygon fill="none" stroke="#000000" points="249.4901,-252 105.7029,-252 105.7029,-216 249.4901,-216 249.4901,-252"/>
<text text-anchor="middle" x="177.5965" y="-229.8" font-family="Times,serif" font-size="14.00" fill="#000000">aws_instance.tf1server</text>
</g>
<!-- [root] aws_subnet.subnet1 -->
<g id="node3" class="node">
<title>[root] aws_subnet.subnet1</title>
<polygon fill="none" stroke="#000000" points="318.973,-180 190.22,-180 190.22,-144 318.973,-144 318.973,-180"/>
<text text-anchor="middle" x="254.5965" y="-157.8" font-family="Times,serif" font-size="14.00" fill="#000000">aws_subnet.subnet1</text>
</g>
<!-- [root] aws_instance.tf1server&#45;&gt;[root] aws_subnet.subnet1 -->
<g id="edge1" class="edge">
<title>[root] aws_instance.tf1server&#45;&gt;[root] aws_subnet.subnet1</title>
<path fill="none" stroke="#000000" d="M197.0269,-215.8314C206.3285,-207.1337 217.6169,-196.5783 227.7251,-187.1265"/>
<polygon fill="#000000" stroke="#000000" points="230.2586,-189.5493 235.1724,-180.1628 225.4776,-184.4363 230.2586,-189.5493"/>
</g>
<!-- [root] data.aws_ami.ubuntu -->
<g id="node6" class="node">
<title>[root] data.aws_ami.ubuntu</title>
<polygon fill="none" stroke="#000000" points="231.0692,-108 96.1239,-108 96.1239,-72 231.0692,-72 231.0692,-108"/>
<text text-anchor="middle" x="163.5965" y="-85.8" font-family="Times,serif" font-size="14.00" fill="#000000">data.aws_ami.ubuntu</text>
</g>
<!-- [root] aws_instance.tf1server&#45;&gt;[root] data.aws_ami.ubuntu -->
<g id="edge2" class="edge">
<title>[root] aws_instance.tf1server&#45;&gt;[root] data.aws_ami.ubuntu</title>
<path fill="none" stroke="#000000" d="M175.8234,-215.7623C173.4355,-191.201 169.1622,-147.2474 166.3532,-118.3541"/>
<polygon fill="#000000" stroke="#000000" points="169.8065,-117.704 165.3552,-108.0896 162.8394,-118.3814 169.8065,-117.704"/>
</g>
<!-- [root] aws_security_group.subnetsecurity -->
<g id="node2" class="node">
<title>[root] aws_security_group.subnetsecurity</title>
<polygon fill="none" stroke="#000000" points="627.2176,-252 413.9754,-252 413.9754,-216 627.2176,-216 627.2176,-252"/>
<text text-anchor="middle" x="520.5965" y="-229.8" font-family="Times,serif" font-size="14.00" fill="#000000">aws_security_group.subnetsecurity</text>
</g>
<!-- [root] aws_vpc.environment&#45;example -->
<g id="node5" class="node">
<title>[root] aws_vpc.environment&#45;example</title>
<polygon fill="none" stroke="#000000" points="441.4249,-108 249.7681,-108 249.7681,-72 441.4249,-72 441.4249,-108"/>
<text text-anchor="middle" x="345.5965" y="-85.8" font-family="Times,serif" font-size="14.00" fill="#000000">aws_vpc.environment&#45;example</text>
</g>
<!-- [root] aws_security_group.subnetsecurity&#45;&gt;[root] aws_vpc.environment&#45;example -->
<g id="edge3" class="edge">
<title>[root] aws_security_group.subnetsecurity&#45;&gt;[root] aws_vpc.environment&#45;example</title>
<path fill="none" stroke="#000000" d="M498.4326,-215.7623C467.269,-190.119 410.416,-143.3372 375.5242,-114.6262"/>
<polygon fill="#000000" stroke="#000000" points="377.5262,-111.741 367.5804,-108.0896 373.0784,-117.1463 377.5262,-111.741"/>
</g>
<!-- [root] aws_subnet.subnet1&#45;&gt;[root] aws_vpc.environment&#45;example -->
<g id="edge4" class="edge">
<title>[root] aws_subnet.subnet1&#45;&gt;[root] aws_vpc.environment&#45;example</title>
<path fill="none" stroke="#000000" d="M277.5597,-143.8314C288.768,-134.9632 302.4174,-124.1637 314.5404,-114.5718"/>
<polygon fill="#000000" stroke="#000000" points="316.9702,-117.1125 322.6407,-108.1628 312.6268,-111.6229 316.9702,-117.1125"/>
</g>
<!-- [root] aws_subnet.subnet2 -->
<g id="node4" class="node">
<title>[root] aws_subnet.subnet2</title>
<polygon fill="none" stroke="#000000" points="395.973,-252 267.22,-252 267.22,-216 395.973,-216 395.973,-252"/>
<text text-anchor="middle" x="331.5965" y="-229.8" font-family="Times,serif" font-size="14.00" fill="#000000">aws_subnet.subnet2</text>
</g>
<!-- [root] aws_subnet.subnet2&#45;&gt;[root] aws_vpc.environment&#45;example -->
<g id="edge5" class="edge">
<title>[root] aws_subnet.subnet2&#45;&gt;[root] aws_vpc.environment&#45;example</title>
<path fill="none" stroke="#000000" d="M333.3696,-215.7623C335.7575,-191.201 340.0308,-147.2474 342.8399,-118.3541"/>
<polygon fill="#000000" stroke="#000000" points="346.3536,-118.3814 343.8378,-108.0896 339.3865,-117.704 346.3536,-118.3814"/>
</g>
<!-- [root] provider.aws -->
<g id="node7" class="node">
<title>[root] provider.aws</title>
<polygon fill="none" stroke="#000000" points="253.5965,-36 174.9882,-18 253.5965,0 332.2048,-18 253.5965,-36"/>
<text text-anchor="middle" x="253.5965" y="-13.8" font-family="Times,serif" font-size="14.00" fill="#000000">provider.aws</text>
</g>
<!-- [root] aws_vpc.environment&#45;example&#45;&gt;[root] provider.aws -->
<g id="edge6" class="edge">
<title>[root] aws_vpc.environment&#45;example&#45;&gt;[root] provider.aws</title>
<path fill="none" stroke="#000000" d="M322.381,-71.8314C309.3328,-61.6197 293.0123,-48.8472 279.5437,-38.3065"/>
<polygon fill="#000000" stroke="#000000" points="281.613,-35.4815 271.5808,-32.0747 277.2988,-40.9941 281.613,-35.4815"/>
</g>
<!-- [root] data.aws_ami.ubuntu&#45;&gt;[root] provider.aws -->
<g id="edge7" class="edge">
<title>[root] data.aws_ami.ubuntu&#45;&gt;[root] provider.aws</title>
<path fill="none" stroke="#000000" d="M186.3073,-71.8314C198.9515,-61.716 214.7366,-49.0879 227.8398,-38.6054"/>
<polygon fill="#000000" stroke="#000000" points="230.3809,-41.0547 236.0032,-32.0747 226.008,-35.5886 230.3809,-41.0547"/>
</g>
<!-- [root] meta.count&#45;boundary (count boundary fixup) -->
<g id="node8" class="node">
<title>[root] meta.count&#45;boundary (count boundary fixup)</title>
<ellipse fill="none" stroke="#000000" cx="191.5965" cy="-306" rx="191.6931" ry="18"/>
<text text-anchor="middle" x="191.5965" y="-301.8" font-family="Times,serif" font-size="14.00" fill="#000000">[root] meta.count&#45;boundary (count boundary fixup)</text>
</g>
<!-- [root] meta.count&#45;boundary (count boundary fixup)&#45;&gt;[root] aws_instance.tf1server -->
<g id="edge8" class="edge">
<title>[root] meta.count&#45;boundary (count boundary fixup)&#45;&gt;[root] aws_instance.tf1server</title>
<path fill="none" stroke="#000000" d="M188.0637,-287.8314C186.5664,-280.131 184.786,-270.9743 183.122,-262.4166"/>
<polygon fill="#000000" stroke="#000000" points="186.5213,-261.5614 181.1769,-252.4133 179.65,-262.8975 186.5213,-261.5614"/>
</g>
<!-- [root] meta.count&#45;boundary (count boundary fixup)&#45;&gt;[root] aws_security_group.subnetsecurity -->
<g id="edge9" class="edge">
<title>[root] meta.count&#45;boundary (count boundary fixup)&#45;&gt;[root] aws_security_group.subnetsecurity</title>
<path fill="none" stroke="#000000" d="M267.4889,-289.3913C315.3462,-278.918 377.4651,-265.3236 428.1859,-254.2236"/>
<polygon fill="#000000" stroke="#000000" points="429.1499,-257.5955 438.1704,-252.0385 427.6533,-250.7574 429.1499,-257.5955"/>
</g>
<!-- [root] meta.count&#45;boundary (count boundary fixup)&#45;&gt;[root] aws_subnet.subnet2 -->
<g id="edge10" class="edge">
<title>[root] meta.count&#45;boundary (count boundary fixup)&#45;&gt;[root] aws_subnet.subnet2</title>
<path fill="none" stroke="#000000" d="M226.2033,-288.2022C244.6574,-278.7115 267.5653,-266.9304 287.3053,-256.7783"/>
<polygon fill="#000000" stroke="#000000" points="289.1233,-259.7792 296.4154,-252.0931 285.9218,-253.5541 289.1233,-259.7792"/>
</g>
<!-- [root] provider.aws (close) -->
<g id="node9" class="node">
<title>[root] provider.aws (close)</title>
<ellipse fill="none" stroke="#000000" cx="505.5965" cy="-306" rx="104.3276" ry="18"/>
<text text-anchor="middle" x="505.5965" y="-301.8" font-family="Times,serif" font-size="14.00" fill="#000000">[root] provider.aws (close)</text>
</g>
<!-- [root] provider.aws (close)&#45;&gt;[root] aws_instance.tf1server -->
<g id="edge11" class="edge">
<title>[root] provider.aws (close)&#45;&gt;[root] aws_instance.tf1server</title>
<path fill="none" stroke="#000000" d="M440.5768,-291.8489C393.0949,-281.5001 326.8814,-267.0384 259.5263,-252.2016"/>
<polygon fill="#000000" stroke="#000000" points="260.1014,-248.7444 249.5824,-250.0103 258.5949,-255.5804 260.1014,-248.7444"/>
</g>
<!-- [root] provider.aws (close)&#45;&gt;[root] aws_security_group.subnetsecurity -->
<g id="edge12" class="edge">
<title>[root] provider.aws (close)&#45;&gt;[root] aws_security_group.subnetsecurity</title>
<path fill="none" stroke="#000000" d="M509.3816,-287.8314C510.9859,-280.131 512.8935,-270.9743 514.6764,-262.4166"/>
<polygon fill="#000000" stroke="#000000" points="518.1472,-262.9169 516.7604,-252.4133 511.2944,-261.4892 518.1472,-262.9169"/>
</g>
<!-- [root] provider.aws (close)&#45;&gt;[root] aws_subnet.subnet2 -->
<g id="edge13" class="edge">
<title>[root] provider.aws (close)&#45;&gt;[root] aws_subnet.subnet2</title>
<path fill="none" stroke="#000000" d="M465.2401,-289.3008C441.2774,-279.3852 410.6122,-266.6961 384.7014,-255.9745"/>
<polygon fill="#000000" stroke="#000000" points="385.9701,-252.7117 375.3917,-252.1222 383.2936,-259.1798 385.9701,-252.7117"/>
</g>
<!-- [root] root -->
<g id="node10" class="node">
<title>[root] root</title>
<ellipse fill="none" stroke="#000000" cx="348.5965" cy="-378" rx="46.8976" ry="18"/>
<text text-anchor="middle" x="348.5965" y="-373.8" font-family="Times,serif" font-size="14.00" fill="#000000">[root] root</text>
</g>
<!-- [root] root&#45;&gt;[root] meta.count&#45;boundary (count boundary fixup) -->
<g id="edge14" class="edge">
<title>[root] root&#45;&gt;[root] meta.count&#45;boundary (count boundary fixup)</title>
<path fill="none" stroke="#000000" d="M318.3253,-364.1177C295.9458,-353.8544 265.0277,-339.6754 239.3332,-327.892"/>
<polygon fill="#000000" stroke="#000000" points="240.6774,-324.658 230.1287,-323.6708 237.7594,-331.0208 240.6774,-324.658"/>
</g>
<!-- [root] root&#45;&gt;[root] provider.aws (close) -->
<g id="edge15" class="edge">
<title>[root] root&#45;&gt;[root] provider.aws (close)</title>
<path fill="none" stroke="#000000" d="M378.8677,-364.1177C401.7234,-353.6361 433.4849,-339.0703 459.4926,-327.1432"/>
<polygon fill="#000000" stroke="#000000" points="461.1563,-330.2308 468.787,-322.8808 458.2382,-323.868 461.1563,-330.2308"/>
</g>
</g>
</svg>
